<?xml version="1.0" standalone="no"?>
<!DOCTYPE svg PUBLIC "-//W3C//DTD SVG 20010904//EN"
 "http://www.w3.org/TR/2001/REC-SVG-20010904/DTD/svg10.dtd">
<svg version="1.0" xmlns="http://www.w3.org/2000/svg"
 width="512.000000pt" height="512.000000pt" viewBox="0 0 512.000000 512.000000"
 preserveAspectRatio="xMidYMid meet">

<g transform="translate(0.000000,512.000000) scale(0.100000,-0.100000)"
fill="#000000" stroke="none">
<path d="M2365 5114 c-652 -67 -1178 -310 -1614 -745 -404 -404 -649 -904
-733 -1494 -17 -118 -17 -512 0 -630 59 -414 193 -773 409 -1099 94 -141 187
-254 316 -385 407 -412 905 -658 1502 -743 118 -17 512 -17 630 0 590 84 1090
329 1494 733 405 406 649 903 733 1494 17 118 17 512 0 630 -59 413 -193 774
-409 1099 -94 141 -187 254 -316 385 -397 402 -885 648 -1457 736 -101 15
-468 28 -555 19z m1020 -824 c277 -33 484 -127 641 -292 75 -79 110 -128 153
-215 82 -163 108 -296 122 -618 14 -293 6 -1285 -11 -1430 -24 -200 -96 -407
-182 -519 -157 -205 -347 -319 -620 -371 -141 -27 -525 -38 -1108 -32 -571 6
-680 13 -840 53 -270 68 -496 248 -608 487 -73 155 -99 293 -113 602 -14 293
-6 1285 11 1430 45 381 217 649 509 795 152 76 301 107 571 120 243 12 1354 4
1475 -10z"/>
<path d="M1815 3979 c-221 -16 -370 -75 -485 -189 -119 -119 -172 -262 -190
-510 -13 -175 -13 -1265 0 -1440 18 -248 71 -391 190 -510 119 -119 262 -172
510 -190 174 -13 1252 -13 1435 0 251 17 395 70 515 190 119 119 172 262 190
510 13 174 13 1252 0 1435 -17 251 -70 395 -190 515 -119 119 -262 172 -510
190 -160 12 -1306 11 -1465 -1z m1789 -309 c117 -80 129 -244 24 -334 -96 -82
-236 -64 -307 39 -72 106 -32 253 83 307 58 27 151 21 200 -12z m-833 -239
c329 -84 571 -326 661 -660 29 -108 29 -314 0 -422 -47 -174 -128 -314 -250
-431 -121 -116 -244 -185 -411 -230 -108 -29 -314 -29 -422 0 -334 90 -571
327 -661 661 -29 108 -29 314 0 422 47 174 128 314 250 431 142 136 305 217
497 248 85 13 247 4 336 -19z"/>
<path d="M2422 3126 c-208 -51 -388 -236 -431 -444 -40 -192 21 -395 159 -532
109 -110 254 -170 410 -170 97 0 162 16 259 62 195 93 321 296 321 518 0 156
-60 301 -170 410 -74 75 -191 139 -288 159 -69 14 -193 13 -260 -3z"/>
</g>
</svg>
